<svg xmlns="http://www.w3.org/2000/svg" width="154.281" height="46.124" viewBox="0 0 154.281 46.124">
  <g id="Group_5062" data-name="Group 5062" transform="translate(-380.768 -653.534)">
    <g id="Group_2" data-name="Group 2">
      <path id="Path_1" data-name="Path 1" d="M476.42,677.736c0,2.435-.005,4.87,0,7.3a1.376,1.376,0,0,0,2.724.351q.747-3.009,1.492-6.018,1.1-4.452,2.2-8.9c.273-1.107.541-2.215.817-3.322a1.942,1.942,0,0,1,1.547-1.567,2.4,2.4,0,0,1,2.409.71,2.1,2.1,0,0,1,.311,2.033c-.415,1.691-.848,3.378-1.27,5.067q-.989,3.957-1.971,7.915c-.438,1.762-.86,3.528-1.312,5.287a5.438,5.438,0,0,1-3.056,3.749,6.092,6.092,0,0,1-4.66.2,5.117,5.117,0,0,1-3.517-4.262,8.143,8.143,0,0,1-.089-1.463q0-6.871,0-13.742a1.449,1.449,0,0,0-.553-1.363,1.491,1.491,0,0,0-1.5-.1,1.244,1.244,0,0,0-.707,1.191c-.013.175,0,.351,0,.527,0,4.719.019,9.438-.021,14.156a5.356,5.356,0,0,1-5.275,5.39,5.78,5.78,0,0,1-4.287-1.38,5.677,5.677,0,0,1-1.787-2.985q-1.617-6.513-3.232-13.026c-.444-1.788-.892-3.575-1.328-5.366a1.915,1.915,0,0,1,1.461-2.505,2.127,2.127,0,0,1,2.773,1.385c.358,1.435.706,2.872,1.061,4.308q1.14,4.616,2.282,9.233c.382,1.545.754,3.092,1.136,4.637a1.484,1.484,0,0,0,1.711,1.316,1.227,1.227,0,0,0,1.075-1.051,4.348,4.348,0,0,0,.043-.675q0-6.852,0-13.7a6.323,6.323,0,0,1,.933-3.585,5.1,5.1,0,0,1,3.534-2.278,6.053,6.053,0,0,1,5.205,1.22,5.217,5.217,0,0,1,1.81,3.682c.033.362.046.727.047,1.09Q476.424,674.461,476.42,677.736Z" fill="#006cb7"/>
      <path id="Path_2" data-name="Path 2" d="M513.422,677.736c0-1.594-.048-3.19.011-4.781a7.726,7.726,0,0,1,3.268-6.425,8.755,8.755,0,0,1,6.178-1.4,7.664,7.664,0,0,1,5.463,2.9,7.97,7.97,0,0,1,1.677,4.9c.043,2.886.024,5.773.012,8.659a2.032,2.032,0,0,1-2.091,2.14,2.053,2.053,0,0,1-2.284-2.021c-.015-.188-.012-.377-.012-.565,0-2.56-.006-5.12,0-7.68.009-3.5-2.984-4.538-5.349-3.782a3.46,3.46,0,0,0-2.443,3.085,6.224,6.224,0,0,0-.044.864q0,4.122,0,8.245a5.14,5.14,0,0,0,.208,1.636,3.619,3.619,0,0,0,3.392,2.521,30.047,30.047,0,0,1,3.42.121,5.9,5.9,0,0,1,5.113,5.165,8.647,8.647,0,0,1-.5,4.8,5.83,5.83,0,0,1-4.767,3.456,10.154,10.154,0,0,1-1.539.077c-2.335,0-4.669,0-7,0a2.138,2.138,0,0,1-2.15-2.884,2.039,2.039,0,0,1,2.143-1.486c2.41-.008,4.819,0,7.229,0a3.194,3.194,0,0,0,.748-.056,1.878,1.878,0,0,0,1.517-1.74,8.6,8.6,0,0,0,.016-1.053,1.948,1.948,0,0,0-2.037-2.008c-.953-.024-1.911.03-2.86-.045a7.627,7.627,0,0,1-5.473-2.718,8.067,8.067,0,0,1-1.837-5.144C513.394,680.924,513.422,679.33,513.422,677.736Z" fill="#006cb7"/>
      <path id="Path_3" data-name="Path 3" d="M385.143,669.024q0,6.438,0,12.875a4.953,4.953,0,0,0,.535,2.474,4.111,4.111,0,0,0,3.952,2.132,4.1,4.1,0,0,0,4.268-4.081c.013-3.012.039-6.024,0-9.035a3.416,3.416,0,0,0-3.464-3.482,6.763,6.763,0,0,1-.713-.041,2.043,2.043,0,0,1-1.785-2.34,2.013,2.013,0,0,1,2.013-1.985,8.488,8.488,0,0,1,3.961.734,7.139,7.139,0,0,1,4.332,6.463c.2,3.281.067,6.573.049,9.861a8.431,8.431,0,0,1-.322,2.191,7.691,7.691,0,0,1-5.019,5.533,10.137,10.137,0,0,1-6.438.123,7.613,7.613,0,0,1-4.741-3.909,8.939,8.939,0,0,1-.989-4.136c-.011-2.334-.008-4.668-.008-7q0-9.732,0-19.464a2.179,2.179,0,0,1,3.04-2.258,1.968,1.968,0,0,1,1.33,2.02q.014,5.628.005,11.256Z" fill="#006cb7"/>
      <path id="Path_4" data-name="Path 4" d="M433.134,677.762c0-1.381-.023-2.762.007-4.142a9.1,9.1,0,0,1,1.231-4.486,7.735,7.735,0,0,1,4.642-3.608,9.781,9.781,0,0,1,7.769.7,6.806,6.806,0,0,1,3.418,4.686,8.276,8.276,0,0,1-1,6.409,6.585,6.585,0,0,1-4.105,2.9,9.512,9.512,0,0,1-2.461.285,1.983,1.983,0,0,1-1.92-1.018,2.356,2.356,0,0,1,.116-2.536,1.933,1.933,0,0,1,1.624-.81,6.6,6.6,0,0,0,1.124-.086,3.306,3.306,0,0,0,.13-6.35,4.782,4.782,0,0,0-4.857.95,4,4,0,0,0-1.324,2.984c-.039,2.735-.061,5.473,0,8.207a4.234,4.234,0,0,0,4.246,4.175c1.958.038,3.916.016,5.874.018a2.413,2.413,0,0,1,1.463.4,2.313,2.313,0,0,1,.728,2.581,1.948,1.948,0,0,1-1.972,1.39c-2.222,0-4.449.086-6.663-.041a8.053,8.053,0,0,1-7.04-4.383,8.941,8.941,0,0,1-1.029-4.161C433.118,680.473,433.133,679.118,433.134,677.762Z" fill="#006cb7"/>
      <path id="Path_5" data-name="Path 5" d="M412.822,675.816q0-3.916,0-7.833a3.513,3.513,0,0,1,.086-.9,2.112,2.112,0,0,1,2.36-1.549,2.02,2.02,0,0,1,1.921,1.957c.015.2.009.4.009.6q0,7.362,0,14.724a3.492,3.492,0,0,0,6.305,2.359,3.619,3.619,0,0,0,.618-2.209q0-7.381,0-14.761c0-.176,0-.352,0-.528a2.2,2.2,0,0,1,4.392-.077c.009.125.007.251.007.376q0,7.457,0,14.912a8.759,8.759,0,0,1-.858,4.009,6.8,6.8,0,0,1-4.355,3.613,8.869,8.869,0,0,1-6.188-.333,7.055,7.055,0,0,1-4.238-6.121,12.9,12.9,0,0,1-.058-1.391C412.819,680.385,412.822,678.1,412.822,675.816Z" fill="#006cb7"/>
      <path id="Path_6" data-name="Path 6" d="M509.474,687.375a7.243,7.243,0,0,1-.055,1.4,2.208,2.208,0,0,1-4.279-.033,4.825,4.825,0,0,1-.059-.824,11.455,11.455,0,0,0-1.011-5.007,6.426,6.426,0,0,0-7.139-3.646,4.085,4.085,0,0,0-3.31,4.822,2.729,2.729,0,0,0,1.893,2.237,3.138,3.138,0,0,0,3.288-.681,2.415,2.415,0,0,1,1.625-.761,2.459,2.459,0,0,1,2.117,1.512,2.026,2.026,0,0,1-.56,2.3,7.719,7.719,0,0,1-7.948,1.8,6.33,6.33,0,0,1-4.288-3.962,8.84,8.84,0,0,1-.17-5.909,7.836,7.836,0,0,1,6.9-5.717,10.845,10.845,0,0,1,8.189,1.877A10.541,10.541,0,0,1,508,680.829,15.8,15.8,0,0,1,509.474,687.375Z" fill="#006cb7"/>
      <path id="Path_7" data-name="Path 7" d="M407.49,671.995q0,7.98,0,15.96a2.667,2.667,0,0,1-.414,1.647,2.16,2.16,0,0,1-2.4.752,1.886,1.886,0,0,1-1.514-1.633,3.765,3.765,0,0,1-.052-.712q0-16.054,0-32.108a3.2,3.2,0,0,1,.082-.822,2.108,2.108,0,0,1,2.406-1.528,2.005,2.005,0,0,1,1.874,1.92c.016.238.015.476.015.715Q407.49,664.091,407.49,671.995Z" fill="#006cb7"/>
      <path id="Path_8" data-name="Path 8" d="M499.532,665.531a30.657,30.657,0,0,1,3.46.084,6.035,6.035,0,0,1,5.29,6.779,2.092,2.092,0,0,1-2.592,1.719c-1.032-.182-1.149-.748-1.591-1.995-.069-.321-.169-.414-.209-.608a1.921,1.921,0,0,0-2.023-1.606c-1.894-.013-3.788-.006-5.682-.006a2.121,2.121,0,0,1-2.155-2.905,1.989,1.989,0,0,1,2.006-1.459C497.1,665.518,498.168,665.531,499.532,665.531Z" fill="#006cb7"/>
      <g id="Group_1" data-name="Group 1">
        <path id="Path_9" data-name="Path 9" d="M503.145,668.816c1.634.31,1,2.264.991,4.649-.006,2.56,0,5.12,0,7.68,0,.188,0,.377.012.565a2.052,2.052,0,0,0,2.284,2.021,2.03,2.03,0,0,0,2.09-2.14c.013-2.886.032-5.773-.011-8.659a7.972,7.972,0,0,0-1.677-4.9c-1.384-1.774-3.311-2.266-5.513-2.507-.086-.009-.17,0-.256-.01Z" fill="#006cb7"/>
      </g>
    </g>
    <g id="Group_3" data-name="Group 3">
      <path id="Path_10" data-name="Path 10" d="M531.727,664.546a3.322,3.322,0,1,1,3.322-3.322A3.32,3.32,0,0,1,531.727,664.546Zm-3.1-3.322a3.1,3.1,0,1,0,3.1-3.1A3.1,3.1,0,0,0,528.628,661.224Zm1.9-1.692a8.058,8.058,0,0,1,1.064-.079c1.207,0,1.457.529,1.457.965a.885.885,0,0,1-.822.892v.022a.844.844,0,0,1,.622.628A4.648,4.648,0,0,0,533.2,663h-.486a4.073,4.073,0,0,1-.271-.871.761.761,0,0,0-.786-.672h-.693V663h-.435Zm.435,1.585h.743c.586,0,.893-.264.893-.649,0-.451-.357-.672-.993-.672a3.022,3.022,0,0,0-.643.05Z" fill="#006cb7"/>
    </g>
  </g>
</svg>
