<svg xmlns="http://www.w3.org/2000/svg" xmlns:xlink="http://www.w3.org/1999/xlink" width="1920" height="100" viewBox="0 0 1920 100">
  <defs>
    <clipPath id="clip-Wave-top">
      <rect width="1920" height="100"/>
    </clipPath>
  </defs>
  <g id="Wave-top" clip-path="url(#clip-Wave-top)">
    <rect width="1920" height="100" fill="#fff"/>
    <g id="Group_5187" data-name="Group 5187" transform="translate(-11 -3530.226)">
      <path id="Path_685" data-name="Path 685" d="M1783.441,56.109c-46.438.157-101.946,4.543-155.774,2-67.22-3.171-131.1-34.632-223.863-34.632-107.736,0-163.26,42.87-295.9,31.109-79.451-7.047-115.678,13.454-211.3,13.454-78.658,0-106.913-21.1-209.755-21.1-104.879,0-105.908,15.91-200.5,15.91C389.012,62.85,402.553,0,325.95,0,255,0,248.66,62.58,160.922,62.58,35.1,62.58,0,82.225,0,82.225H1920S1881.476,55.777,1783.441,56.109Z" transform="translate(11 3548)" fill="#f5f8fa"/>
    </g>
  </g>
</svg>
