<?xml version="1.0" standalone="no"?><svg xmlns="http://www.w3.org/2000/svg" viewBox="0 0 1440 320"><path fill="#F5F8FA" fill-opacity="1" d="M0,96L18.5,112C36.9,128,74,160,111,149.3C147.7,139,185,85,222,101.3C258.5,117,295,203,332,234.7C369.2,267,406,245,443,213.3C480,181,517,139,554,144C590.8,149,628,203,665,208C701.5,213,738,171,775,144C812.3,117,849,107,886,122.7C923.1,139,960,181,997,192C1033.8,203,1071,181,1108,149.3C1144.6,117,1182,75,1218,64C1255.4,53,1292,75,1329,96C1366.2,117,1403,139,1422,149.3L1440,160L1440,320L1421.5,320C1403.1,320,1366,320,1329,320C1292.3,320,1255,320,1218,320C1181.5,320,1145,320,1108,320C1070.8,320,1034,320,997,320C960,320,923,320,886,320C849.2,320,812,320,775,320C738.5,320,702,320,665,320C627.7,320,591,320,554,320C516.9,320,480,320,443,320C406.2,320,369,320,332,320C295.4,320,258,320,222,320C184.6,320,148,320,111,320C73.8,320,37,320,18,320L0,320Z"></path></svg>