<svg xmlns="http://www.w3.org/2000/svg" width="30.916" height="22.953" viewBox="0 0 30.916 22.953">
  <path id="icons8-youtube" d="M33.053,12.945A4.075,4.075,0,0,0,29.825,9.86,63.821,63.821,0,0,0,18.349,9,64.761,64.761,0,0,0,6.8,9.86a3.981,3.981,0,0,0-3.228,3.085A47.062,47.062,0,0,0,3,20.477a39.038,39.038,0,0,0,.644,7.532,4.082,4.082,0,0,0,3.228,3.085,65.983,65.983,0,0,0,11.549.86,65.983,65.983,0,0,0,11.549-.86A3.984,3.984,0,0,0,33.2,28.008a55.023,55.023,0,0,0,.717-7.532A50.192,50.192,0,0,0,33.053,12.945ZM14.477,25.5V15.456l8.75,5.021Z" transform="translate(-3 -9)" fill="#0076d5"/>
</svg>
